<?xml version="1.0" encoding="utf-8"?>
<!-- Generator: Adobe Illustrator 21.0.2, SVG Export Plug-In . SVG Version: 6.00 Build 0)  -->
<svg version="1.1" id="Capa_1" xmlns="http://www.w3.org/2000/svg" xmlns:xlink="http://www.w3.org/1999/xlink" x="0px" y="0px"
	 viewBox="0 0 460.8 600" style="enable-background:new 0 0 460.8 600;" xml:space="preserve">
<style type="text/css">
	.st0{opacity:0.9;}
	.st1{fill:#606060;}
	.st2{fill:url(#SVGID_1_);}
	.st3{fill:url(#SVGID_2_);}
	.st4{fill:url(#SVGID_3_);}
	.st5{fill:url(#SVGID_4_);}
	.st6{fill:url(#SVGID_5_);}
	.st7{fill:url(#SVGID_6_);}
	.st8{fill:url(#SVGID_7_);}
	.st9{fill:url(#SVGID_8_);}
	.st10{fill:url(#SVGID_9_);}
	.st11{fill:url(#SVGID_10_);}
	.st12{fill:url(#SVGID_11_);}
	.st13{fill:url(#SVGID_12_);}
	.st14{fill:url(#SVGID_13_);}
	.st15{fill:url(#SVGID_14_);}
	.st16{fill:url(#SVGID_15_);}
	.st17{fill:url(#SVGID_16_);}
	.st18{fill:url(#SVGID_17_);}
	.st19{fill:url(#SVGID_18_);}
	.st20{fill:url(#SVGID_19_);}
	.st21{fill:url(#SVGID_20_);}
	.st22{fill:url(#SVGID_21_);}
	.st23{fill:url(#SVGID_22_);}
	.st24{fill:url(#SVGID_23_);}
	.st25{fill:url(#SVGID_24_);}
	.st26{fill:url(#SVGID_25_);}
	.st27{fill:url(#SVGID_26_);}
	.st28{fill:url(#SVGID_27_);}
</style>
<g class="st0">
	<g>
		<g>
			<g>
				<polygon class="st1" points="237,70.9 256.6,36.6 237,1.8 41.7,348.5 80.6,348.5 				"/>
			</g>
			<g>
				<path class="st1" d="M247.5,89.4c-0.4,1.7-9.6,37.8-9.6,37.8l34.9,14.9l1.3,2.2l-6.3,34.7l35.2,15l1,1.8l-6.4,35l35.6,15.2
					l0.7,1.3l-6.4,35.4l35,15l-6.3,34.8l36.1,15.4l0.5,0.3l28.2,50.1l39.2,0L267,54.9L247.5,89.4z"/>
			</g>
			<g>
				<polygon class="st1" points="31.5,366.5 13.6,398.3 399.6,398.3 381.7,366.5 				"/>
			</g>
			<g>
				<polygon class="st1" points="196.7,348.8 149.6,265.1 102.4,348.8 				"/>
			</g>
		</g>
		<g>
			<g>
				<polygon class="st1" points="53.9,485.3 62.7,485.3 79.4,485.3 94.8,455.6 102.3,455.6 104.9,485.2 128.9,485.3 122.1,435.3 
					82.3,435.3 80.8,437.4 64.6,466.3 30.8,466.3 26.1,447.5 42.5,428.9 74.8,428.9 79.3,412 30.8,412 2.5,445.1 15.5,485.3 				"/>
			</g>
			<g>
				<polygon class="st1" points="118.5,411.9 94.2,411.9 84.7,428.8 121.2,428.8 				"/>
			</g>
			<g>
				<polygon class="st1" points="155.2,454.3 155.2,485.3 170.7,485.3 186.1,455.9 179.5,485.3 201.4,485.3 212.5,435.1 
					179.3,435.1 169.1,450.8 169.1,435.1 140.3,435.1 129.3,485.3 148.4,485.3 				"/>
			</g>
			<g>
				<polygon class="st1" points="169.1,411.9 145.5,411.9 141.7,428.9 169.1,428.9 				"/>
			</g>
			<g>
				<polygon class="st1" points="217.6,411.9 192.2,411.9 182.8,428.9 214,428.9 				"/>
			</g>
			<g>
				<polygon class="st1" points="233.9,485.3 244.9,435.2 224.3,435.2 213.2,485.3 				"/>
			</g>
			<g>
				<polygon class="st1" points="250.2,412 229.5,412 225.7,428.8 246.4,428.8 				"/>
			</g>
			<g>
				<polygon class="st1" points="290.6,485.2 294.8,466.3 264.5,466.3 276.6,411.9 256,411.9 239.7,485.3 				"/>
			</g>
			<g>
				<polygon class="st1" points="355.1,435.2 337.7,435.2 331.2,464.8 317.5,464.8 324.2,435.2 306.2,435.2 295.1,485.3 
					343.9,485.3 				"/>
			</g>
			<g>
				<polygon class="st1" points="360.1,411.9 311.4,411.9 307.6,428.9 356.5,428.9 				"/>
			</g>
			<g>
				<path class="st1" d="M120.3,535.7c6.9-3.9,10.3-10,10.3-18.3c0-3.2-0.5-6.6-1.5-10.3c-1.4-5.4-5.1-8.4-11.1-9.1l-3.7-0.4H77.9
					l-4,16.8l37.3,0.2l1.4,0.4l1.3,0.9l0.6,1.2v1l-0.6,1.2l-1.1,0.7l-1.3,0.5l-2.5,0.4H72.6l-11.1,50.2l21.1,0l7.3-31l19,59.9h21.6
					l-18.5-60.7L120.3,535.7z"/>
			</g>
			<g>
				<polygon class="st1" points="127,571.1 147.7,571.1 158.7,521 138.1,521 				"/>
			</g>
			<g>
				<polygon class="st1" points="139.5,514.6 160.1,514.6 163.9,497.8 143.2,497.8 				"/>
			</g>
			<g>
				<polygon class="st1" points="186.9,497.7 169.2,497.7 171.1,514.6 188.8,514.6 				"/>
			</g>
			<g>
				<polygon class="st1" points="197.2,521 191.3,536 189.5,521 171.7,521 177.2,571.1 198.2,571.1 216.5,521 				"/>
			</g>
			<g>
				<polygon class="st1" points="199.7,514.6 218.6,514.8 225,497.7 206.6,497.7 				"/>
			</g>
			<g>
				<polygon class="st1" points="236.1,539.6 267.4,539.6 271.3,521 220.3,521 209.2,571.1 260.3,571 264.9,550.4 233.7,550.4 				
					"/>
			</g>
			<g>
				<polygon class="st1" points="276.6,497.7 225.4,497.8 221.6,514.6 272.7,514.6 				"/>
			</g>
			<g>
				<path class="st1" d="M324.5,535.7c6.9-3.9,10.3-10,10.3-18.3c0-3.2-0.5-6.6-1.5-10.3c-1.4-5.4-5.1-8.4-11.1-9.1l-3.7-0.4h-36.4
					l-4,16.8l37.3,0.2l1.4,0.4l1.3,0.9l0.6,1.2v1l-0.6,1.2L317,520l-1.3,0.5l-2.5,0.4h-36.4l-11.1,50.2l21.1,0l7.3-31l19,59.9h21.6
					l-18.5-60.7L324.5,535.7z"/>
			</g>
			<g>
				<polygon class="st1" points="373.9,521 367.3,550.6 353.7,550.6 360.3,521 342.3,521 331.2,571.1 380.1,571.1 391.2,521 				"/>
			</g>
			<g>
				<polygon class="st1" points="343.7,514.7 392.6,514.7 396.3,497.7 347.5,497.8 				"/>
			</g>
			<g>
				<polygon class="st1" points="390.6,539.8 419.4,539.8 417,550.6 388.2,550.6 383.7,571.1 436,571 447.2,521.1 394.7,521.1 				
					"/>
			</g>
			<g>
				<polygon class="st1" points="399.9,497.8 396.1,514.8 448.6,514.8 452.3,497.7 				"/>
			</g>
		</g>
	</g>
</g>
<g>
	<g>
		<linearGradient id="SVGID_1_" gradientUnits="userSpaceOnUse" x1="41.7592" y1="173.3463" x2="418.099" y2="173.3463">
			<stop  offset="0" style="stop-color:#FF5755"/>
			<stop  offset="1" style="stop-color:#E7187F"/>
		</linearGradient>
		<polygon class="st2" points="235.2,69.1 254.8,34.8 235.2,0 39.9,346.7 78.8,346.7 		"/>
		<linearGradient id="SVGID_2_" gradientUnits="userSpaceOnUse" x1="41.7592" y1="224.8176" x2="418.099" y2="224.8176">
			<stop  offset="0" style="stop-color:#FF5755"/>
			<stop  offset="1" style="stop-color:#E7187F"/>
		</linearGradient>
		<path class="st3" d="M245.7,87.6c-0.4,1.7-9.6,37.8-9.6,37.8l34.9,14.9l1.3,2.2l-6.3,34.7l35.2,15l1,1.8l-6.4,35l35.6,15.2
			l0.7,1.3l-6.4,35.4l35,15l-6.3,34.8l36.1,15.4l0.5,0.3l28.2,50.1l39.2,0L265.2,53.1L245.7,87.6z"/>
		<linearGradient id="SVGID_3_" gradientUnits="userSpaceOnUse" x1="41.7592" y1="380.5842" x2="418.099" y2="380.5842">
			<stop  offset="0" style="stop-color:#FF5755"/>
			<stop  offset="1" style="stop-color:#E7187F"/>
		</linearGradient>
		<polygon class="st4" points="29.7,364.6 11.8,396.5 397.8,396.5 379.8,364.7 		"/>
		<linearGradient id="SVGID_4_" gradientUnits="userSpaceOnUse" x1="41.7592" y1="305.1103" x2="418.099" y2="305.1103">
			<stop  offset="0" style="stop-color:#FF5755"/>
			<stop  offset="1" style="stop-color:#E7187F"/>
		</linearGradient>
		<polygon class="st5" points="194.8,347 147.8,263.3 100.6,347 		"/>
	</g>
	<g>
		<linearGradient id="SVGID_5_" gradientUnits="userSpaceOnUse" x1="41.7592" y1="446.8106" x2="418.099" y2="446.8106">
			<stop  offset="0" style="stop-color:#FF5755"/>
			<stop  offset="1" style="stop-color:#E7187F"/>
		</linearGradient>
		<polygon class="st6" points="52.1,483.4 60.9,483.4 77.6,483.4 93,453.8 100.5,453.8 103.1,483.4 127.1,483.4 120.3,433.5 
			80.5,433.5 79,435.6 62.8,464.5 29,464.5 24.3,445.7 40.7,427.1 73,427.1 77.5,410.2 29,410.2 0.7,443.3 13.7,483.4 		"/>
		<linearGradient id="SVGID_6_" gradientUnits="userSpaceOnUse" x1="41.7592" y1="418.5332" x2="418.099" y2="418.5332">
			<stop  offset="0" style="stop-color:#FF5755"/>
			<stop  offset="1" style="stop-color:#E7187F"/>
		</linearGradient>
		<polygon class="st7" points="116.7,410.1 92.4,410.1 82.9,427 119.4,427 		"/>
		<linearGradient id="SVGID_7_" gradientUnits="userSpaceOnUse" x1="41.7592" y1="458.3708" x2="418.099" y2="458.3708">
			<stop  offset="0" style="stop-color:#FF5755"/>
			<stop  offset="1" style="stop-color:#E7187F"/>
		</linearGradient>
		<polygon class="st8" points="153.4,452.5 153.4,483.4 168.9,483.4 184.3,454 177.7,483.4 199.6,483.4 210.7,433.3 177.5,433.3 
			167.3,449 167.3,433.3 138.5,433.3 127.5,483.4 146.6,483.4 		"/>
		<linearGradient id="SVGID_8_" gradientUnits="userSpaceOnUse" x1="41.7592" y1="418.5728" x2="418.099" y2="418.5728">
			<stop  offset="0" style="stop-color:#FF5755"/>
			<stop  offset="1" style="stop-color:#E7187F"/>
		</linearGradient>
		<polygon class="st9" points="167.3,410.1 143.7,410.1 139.9,427.1 167.3,427.1 		"/>
		<linearGradient id="SVGID_9_" gradientUnits="userSpaceOnUse" x1="41.7313" y1="418.5728" x2="418.0712" y2="418.5728">
			<stop  offset="0" style="stop-color:#FF5755"/>
			<stop  offset="1" style="stop-color:#E7187F"/>
		</linearGradient>
		<polygon class="st10" points="215.8,410.1 190.4,410.1 181,427.1 212.2,427.1 		"/>
		<linearGradient id="SVGID_10_" gradientUnits="userSpaceOnUse" x1="41.7592" y1="458.4303" x2="418.099" y2="458.4303">
			<stop  offset="0" style="stop-color:#FF5755"/>
			<stop  offset="1" style="stop-color:#E7187F"/>
		</linearGradient>
		<polygon class="st11" points="232.1,483.4 243.1,433.4 222.5,433.4 211.4,483.4 		"/>
		<linearGradient id="SVGID_11_" gradientUnits="userSpaceOnUse" x1="41.7592" y1="418.5724" x2="418.099" y2="418.5724">
			<stop  offset="0" style="stop-color:#FF5755"/>
			<stop  offset="1" style="stop-color:#E7187F"/>
		</linearGradient>
		<polygon class="st12" points="248.4,410.2 227.7,410.2 223.9,427 244.6,427 		"/>
		<linearGradient id="SVGID_12_" gradientUnits="userSpaceOnUse" x1="41.7592" y1="446.7714" x2="418.099" y2="446.7714">
			<stop  offset="0" style="stop-color:#FF5755"/>
			<stop  offset="1" style="stop-color:#E7187F"/>
		</linearGradient>
		<polygon class="st13" points="288.8,483.4 293,464.5 262.7,464.5 274.8,410.1 254.2,410.1 237.9,483.4 		"/>
		<linearGradient id="SVGID_13_" gradientUnits="userSpaceOnUse" x1="41.7592" y1="458.4303" x2="418.099" y2="458.4303">
			<stop  offset="0" style="stop-color:#FF5755"/>
			<stop  offset="1" style="stop-color:#E7187F"/>
		</linearGradient>
		<polygon class="st14" points="353.2,433.4 335.9,433.4 329.4,463 315.7,463 322.4,433.4 304.4,433.4 293.3,483.4 342.1,483.4 		
			"/>
		<linearGradient id="SVGID_14_" gradientUnits="userSpaceOnUse" x1="41.7592" y1="418.5922" x2="418.099" y2="418.5922">
			<stop  offset="0" style="stop-color:#FF5755"/>
			<stop  offset="1" style="stop-color:#E7187F"/>
		</linearGradient>
		<polygon class="st15" points="358.3,410.1 309.6,410.1 305.8,427.1 354.7,427.1 		"/>
		<linearGradient id="SVGID_15_" gradientUnits="userSpaceOnUse" x1="41.7592" y1="547.0713" x2="418.099" y2="547.0713">
			<stop  offset="0" style="stop-color:#FF5755"/>
			<stop  offset="1" style="stop-color:#E7187F"/>
		</linearGradient>
		<path class="st16" d="M118.5,533.9c6.9-3.9,10.3-10,10.3-18.3c0-3.2-0.5-6.6-1.5-10.3c-1.4-5.4-5.1-8.4-11.1-9.1l-3.7-0.4H76.1
			l-4,16.8l37.3,0.2l1.4,0.4l1.3,0.9l0.6,1.2v1l-0.6,1.2l-1.1,0.7l-1.3,0.5l-2.5,0.4H70.8l-11.1,50.2l21.1,0l7.3-31l19,59.9h21.6
			l-18.5-60.7L118.5,533.9z"/>
		<linearGradient id="SVGID_16_" gradientUnits="userSpaceOnUse" x1="41.7592" y1="544.2455" x2="418.099" y2="544.2455">
			<stop  offset="0" style="stop-color:#FF5755"/>
			<stop  offset="1" style="stop-color:#E7187F"/>
		</linearGradient>
		<polygon class="st17" points="125.2,569.3 145.9,569.3 156.9,519.2 136.2,519.2 		"/>
		<linearGradient id="SVGID_17_" gradientUnits="userSpaceOnUse" x1="41.7592" y1="504.3881" x2="418.099" y2="504.3881">
			<stop  offset="0" style="stop-color:#FF5755"/>
			<stop  offset="1" style="stop-color:#E7187F"/>
		</linearGradient>
		<polygon class="st18" points="137.7,512.8 158.3,512.8 162.1,496 141.4,496 		"/>
		<linearGradient id="SVGID_18_" gradientUnits="userSpaceOnUse" x1="41.7592" y1="504.3488" x2="418.099" y2="504.3488">
			<stop  offset="0" style="stop-color:#FF5755"/>
			<stop  offset="1" style="stop-color:#E7187F"/>
		</linearGradient>
		<polygon class="st19" points="185.1,495.9 167.4,495.9 169.2,512.8 187,512.8 		"/>
		<linearGradient id="SVGID_19_" gradientUnits="userSpaceOnUse" x1="41.7592" y1="544.2256" x2="418.099" y2="544.2256">
			<stop  offset="0" style="stop-color:#FF5755"/>
			<stop  offset="1" style="stop-color:#E7187F"/>
		</linearGradient>
		<polygon class="st20" points="195.4,519.2 189.4,534.2 187.7,519.2 169.9,519.2 175.4,569.3 196.4,569.3 214.7,519.2 		"/>
		<linearGradient id="SVGID_20_" gradientUnits="userSpaceOnUse" x1="41.7592" y1="504.4277" x2="418.099" y2="504.4277">
			<stop  offset="0" style="stop-color:#FF5755"/>
			<stop  offset="1" style="stop-color:#E7187F"/>
		</linearGradient>
		<polygon class="st21" points="197.9,512.8 216.8,512.9 223.2,495.9 204.8,495.9 		"/>
		<linearGradient id="SVGID_21_" gradientUnits="userSpaceOnUse" x1="41.7592" y1="544.2058" x2="418.099" y2="544.2058">
			<stop  offset="0" style="stop-color:#FF5755"/>
			<stop  offset="1" style="stop-color:#E7187F"/>
		</linearGradient>
		<polygon class="st22" points="234.3,537.8 265.6,537.8 269.5,519.1 218.5,519.1 207.4,569.3 258.5,569.2 263.1,548.6 231.9,548.6 
					"/>
		<linearGradient id="SVGID_22_" gradientUnits="userSpaceOnUse" x1="41.7592" y1="504.3687" x2="418.099" y2="504.3687">
			<stop  offset="0" style="stop-color:#FF5755"/>
			<stop  offset="1" style="stop-color:#E7187F"/>
		</linearGradient>
		<polygon class="st23" points="274.8,495.9 223.6,495.9 219.8,512.8 270.9,512.8 		"/>
		<linearGradient id="SVGID_23_" gradientUnits="userSpaceOnUse" x1="41.7592" y1="547.0713" x2="418.099" y2="547.0713">
			<stop  offset="0" style="stop-color:#FF5755"/>
			<stop  offset="1" style="stop-color:#E7187F"/>
		</linearGradient>
		<path class="st24" d="M322.7,533.9c6.9-3.9,10.3-10,10.3-18.3c0-3.2-0.5-6.6-1.5-10.3c-1.4-5.4-5.1-8.4-11.1-9.1l-3.7-0.4h-36.4
			l-4,16.8l37.3,0.2l1.4,0.4l1.3,0.9l0.6,1.2v1l-0.6,1.2l-1.1,0.7l-1.3,0.5l-2.5,0.4H275l-11.1,50.2l21.1,0l7.3-31l19,59.9h21.6
			l-18.5-60.7L322.7,533.9z"/>
		<linearGradient id="SVGID_24_" gradientUnits="userSpaceOnUse" x1="41.7592" y1="544.2455" x2="418.099" y2="544.2455">
			<stop  offset="0" style="stop-color:#FF5755"/>
			<stop  offset="1" style="stop-color:#E7187F"/>
		</linearGradient>
		<polygon class="st25" points="372.1,519.2 365.5,548.8 351.9,548.8 358.5,519.2 340.5,519.2 329.4,569.3 378.3,569.3 389.4,519.2 
					"/>
		<linearGradient id="SVGID_25_" gradientUnits="userSpaceOnUse" x1="41.7592" y1="504.4079" x2="418.099" y2="504.4079">
			<stop  offset="0" style="stop-color:#FF5755"/>
			<stop  offset="1" style="stop-color:#E7187F"/>
		</linearGradient>
		<polygon class="st26" points="341.9,512.9 390.8,512.9 394.5,495.9 345.7,495.9 		"/>
		<linearGradient id="SVGID_26_" gradientUnits="userSpaceOnUse" x1="41.7592" y1="544.2653" x2="418.099" y2="544.2653">
			<stop  offset="0" style="stop-color:#FF5755"/>
			<stop  offset="1" style="stop-color:#E7187F"/>
		</linearGradient>
		<polygon class="st27" points="388.8,538 417.6,538 415.2,548.8 386.4,548.8 381.9,569.3 434.2,569.2 445.3,519.3 392.9,519.3 		
			"/>
		<linearGradient id="SVGID_27_" gradientUnits="userSpaceOnUse" x1="41.7592" y1="504.4277" x2="418.099" y2="504.4277">
			<stop  offset="0" style="stop-color:#FF5755"/>
			<stop  offset="1" style="stop-color:#E7187F"/>
		</linearGradient>
		<polygon class="st28" points="398.1,495.9 394.3,512.9 446.8,512.9 450.4,495.9 		"/>
	</g>
</g>
</svg>
